<?xml version="1.0" encoding="utf-8"?>
<svg width="800px" height="800px" viewBox="0 0 512 512" xmlns="http://www.w3.org/2000/svg">
  <path fill="#ffffff" d="M256,32C132.3,32,32,132.3,32,256c0,42.5,11.9,82.2,32.5,116L33,480l111.4-31.1C176.9,468.2,215.1,480,256,480
    c123.7,0,224-100.3,224-224S379.7,32,256,32z M256,438.7c-37.1,0-71.6-11.1-100.5-30.1l-7.2-4.6l-66.1,18.5l18.1-64.4l-4.7-7.4
    C76.6,331.8,64,295.1,64,256c0-106,86-192,192-192s192,86,192,192S362,438.7,256,438.7z"/>
  <path fill="#ffffff" d="M361.2,304.6c-5.7-2.9-33.8-16.7-39-18.6c-5.2-1.9-9-2.9-12.8,2.9c-3.8,5.7-14.7,18.6-18,22.4
    c-3.3,3.8-6.6,4.3-12.4,1.4c-5.7-2.9-24.2-8.9-46.1-28.4c-17-15.2-28.5-33.9-31.9-39.7c-3.3-5.7-0.4-8.8,2.5-11.7
    c2.6-2.6,5.7-6.7,8.6-10c2.9-3.3,3.8-5.7,5.7-9.5c1.9-3.8,1-7.2-0.5-10c-1.4-2.9-12.8-30.9-17.6-42.3c-4.6-11.1-9.3-9.6-12.8-9.8
    c-3.3-0.2-7.1-0.2-10.9-0.2c-3.8,0-10,1.4-15.2,7.2c-5.2,5.7-20,19.5-20,47.6c0,28.1,20.5,55.2,23.3,59c2.9,3.8,40.3,61.5,97.6,86.3
    c13.6,5.9,24.3,9.4,32.6,12c13.7,4.4,26.2,3.7,36.1,2.3c11-1.6,33.8-13.8,38.6-27.2c4.8-13.4,4.8-24.8,3.3-27.2
    C370.6,308.9,366.9,307.5,361.2,304.6z"/>
</svg>
